<svg width="350" height="73" viewBox="0 0 350 73" fill="none" xmlns="http://www.w3.org/2000/svg">
<path d="M60.207 63.9199C56.9518 66.6868 53.3223 68.819 49.3184 70.3164C45.3145 71.7812 41.1478 72.5137 36.8184 72.5137C33.498 72.5137 30.2917 72.0742 27.1992 71.1953C24.1393 70.349 21.2747 69.1445 18.6055 67.582C15.9362 65.987 13.4948 64.099 11.2812 61.918C9.06771 59.7044 7.17969 57.263 5.61719 54.5938C4.05469 51.8919 2.83398 48.9948 1.95508 45.9023C1.10872 42.8099 0.685547 39.6035 0.685547 36.2832C0.685547 32.9629 1.10872 29.7728 1.95508 26.7129C2.83398 23.653 4.05469 20.7884 5.61719 18.1191C7.17969 15.4173 9.06771 12.9759 11.2812 10.7949C13.4948 8.58138 15.9362 6.69336 18.6055 5.13086C21.2747 3.56836 24.1393 2.36393 27.1992 1.51758C30.2917 0.638672 33.498 0.199219 36.8184 0.199219C41.1478 0.199219 45.3145 0.947917 49.3184 2.44531C53.3223 3.91016 56.9518 6.02604 60.207 8.79297L52.8828 21C50.7669 18.8516 48.3255 17.1751 45.5586 15.9707C42.7917 14.7337 39.8783 14.1152 36.8184 14.1152C33.7585 14.1152 30.8776 14.7012 28.1758 15.873C25.5065 17.0449 23.1628 18.64 21.1445 20.6582C19.1263 22.6439 17.5312 24.9876 16.3594 27.6895C15.1875 30.3587 14.6016 33.2233 14.6016 36.2832C14.6016 39.3757 15.1875 42.2728 16.3594 44.9746C17.5312 47.6764 19.1263 50.0365 21.1445 52.0547C23.1628 54.0729 25.5065 55.668 28.1758 56.8398C30.8776 58.0117 33.7585 58.5977 36.8184 58.5977C38.5762 58.5977 40.2852 58.3861 41.9453 57.9629C43.6055 57.5397 45.1842 56.9538 46.6816 56.2051V36.2832H60.207V63.9199ZM112.209 43.0215V29.0078C112.209 27.0872 111.835 25.2806 111.086 23.5879C110.37 21.8626 109.377 20.3652 108.107 19.0957C106.838 17.8262 105.34 16.8333 103.615 16.1172C101.923 15.3685 100.116 14.9941 98.1953 14.9941C96.2747 14.9941 94.4518 15.3685 92.7266 16.1172C91.0339 16.8333 89.5527 17.8262 88.2832 19.0957C87.0137 20.3652 86.0046 21.8626 85.2559 23.5879C84.5397 25.2806 84.1816 27.0872 84.1816 29.0078V43.0215H112.209ZM126.223 71H112.209V56.9863H84.1816V71H70.2168V29.0078C70.2168 25.1341 70.9492 21.5046 72.4141 18.1191C73.8789 14.7012 75.8646 11.7227 78.3711 9.18359C80.9102 6.64453 83.8724 4.64258 87.2578 3.17773C90.6758 1.71289 94.3216 0.980469 98.1953 0.980469C102.069 0.980469 105.699 1.71289 109.084 3.17773C112.502 4.64258 115.48 6.64453 118.02 9.18359C120.559 11.7227 122.561 14.7012 124.025 18.1191C125.49 21.5046 126.223 25.1341 126.223 29.0078V71ZM152.395 14.9941V43.0215H166.408C168.329 43.0215 170.135 42.6634 171.828 41.9473C173.521 41.1986 175.002 40.1895 176.271 38.9199C177.541 37.6504 178.534 36.1693 179.25 34.4766C179.999 32.7513 180.373 30.9284 180.373 29.0078C180.373 27.0872 179.999 25.2806 179.25 23.5879C178.534 21.8626 177.541 20.3652 176.271 19.0957C175.002 17.8262 173.521 16.8333 171.828 16.1172C170.135 15.3685 168.329 14.9941 166.408 14.9941H152.395ZM152.395 71H138.381V0.980469H166.408C168.98 0.980469 171.454 1.32227 173.83 2.00586C176.206 2.6569 178.42 3.60091 180.471 4.83789C182.554 6.04232 184.442 7.50716 186.135 9.23242C187.86 10.9251 189.325 12.8132 190.529 14.8965C191.766 16.9798 192.71 19.2096 193.361 21.5859C194.045 23.9622 194.387 26.4362 194.387 29.0078C194.387 31.4167 194.077 33.7604 193.459 36.0391C192.873 38.3177 192.01 40.4824 190.871 42.5332C189.764 44.584 188.397 46.472 186.77 48.1973C185.142 49.9225 183.319 51.4199 181.301 52.6895L189.064 71H174.172L168.068 56.8887L152.395 56.9863V71ZM259.523 63.8223C256.268 66.6217 252.622 68.7702 248.586 70.2676C244.549 71.765 240.367 72.5137 236.037 72.5137C232.717 72.5137 229.51 72.0742 226.418 71.1953C223.358 70.349 220.477 69.1445 217.775 67.582C215.106 65.987 212.665 64.0827 210.451 61.8691C208.238 59.6556 206.333 57.2142 204.738 54.5449C203.176 51.8431 201.955 48.9622 201.076 45.9023C200.23 42.8099 199.807 39.6035 199.807 36.2832C199.807 32.9629 200.23 29.7565 201.076 26.6641C201.955 23.5716 203.176 20.6908 204.738 18.0215C206.333 15.3197 208.238 12.862 210.451 10.6484C212.665 8.4349 215.106 6.54688 217.775 4.98438C220.477 3.38932 223.358 2.16862 226.418 1.32227C229.51 0.443359 232.717 0.00390625 236.037 0.00390625C240.367 0.00390625 244.549 0.752604 248.586 2.25C252.622 3.71484 256.268 5.86328 259.523 8.69531L252.102 20.9023C250.051 18.6888 247.626 16.9961 244.826 15.8242C242.027 14.6198 239.097 14.0176 236.037 14.0176C232.945 14.0176 230.048 14.6035 227.346 15.7754C224.644 16.9473 222.284 18.5423 220.266 20.5605C218.247 22.5462 216.652 24.9062 215.48 27.6406C214.309 30.3424 213.723 33.2233 213.723 36.2832C213.723 39.3431 214.309 42.224 215.48 44.9258C216.652 47.5951 218.247 49.9388 220.266 51.957C222.284 53.9753 224.644 55.5703 227.346 56.7422C230.048 57.9141 232.945 58.5 236.037 58.5C239.097 58.5 242.027 57.9141 244.826 56.7422C247.626 55.5378 250.051 53.8288 252.102 51.6152L259.523 63.8223ZM281.691 71H267.678V0.980469H281.691V71ZM335.939 43.0215V29.0078C335.939 27.0872 335.565 25.2806 334.816 23.5879C334.1 21.8626 333.107 20.3652 331.838 19.0957C330.568 17.8262 329.071 16.8333 327.346 16.1172C325.653 15.3685 323.846 14.9941 321.926 14.9941C320.005 14.9941 318.182 15.3685 316.457 16.1172C314.764 16.8333 313.283 17.8262 312.014 19.0957C310.744 20.3652 309.735 21.8626 308.986 23.5879C308.27 25.2806 307.912 27.0872 307.912 29.0078V43.0215H335.939ZM349.953 71H335.939V56.9863H307.912V71H293.947V29.0078C293.947 25.1341 294.68 21.5046 296.145 18.1191C297.609 14.7012 299.595 11.7227 302.102 9.18359C304.641 6.64453 307.603 4.64258 310.988 3.17773C314.406 1.71289 318.052 0.980469 321.926 0.980469C325.799 0.980469 329.429 1.71289 332.814 3.17773C336.232 4.64258 339.211 6.64453 341.75 9.18359C344.289 11.7227 346.291 14.7012 347.756 18.1191C349.221 21.5046 349.953 25.1341 349.953 29.0078V71Z" fill="#BDFF00"/>
</svg>
